<svg height="512" viewBox="0 0 512 512" width="512" xmlns="http://www.w3.org/2000/svg"><g><g><g><path d="m496 68v292h-480v-292a19.994 19.994 0 0 1 20-20h440a19.994 19.994 0 0 1 20 20z" fill="#006df0"/><path d="m496 360v20a19.994 19.994 0 0 1 -20 20h-440a19.994 19.994 0 0 1 -20-20v-20z" fill="#e0e0e2"/><path d="m320 440h-128l8-40h112z" fill="#787680"/><path d="m352 464h-192l8-24h176z" fill="#e0e0e2"/></g><circle cx="176" cy="192" fill="#ff9811" r="80"/><path d="m448 256a64 64 0 0 1 -64 64h-208a48 48 0 1 1 24.02-89.57 88 88 0 0 1 167.44-36.27 64.047 64.047 0 0 1 80.54 61.84z" fill="#e0e0e2"/></g><g><path d="m476 40h-440a28.031 28.031 0 0 0 -28 28v312a28.031 28.031 0 0 0 28 28h154.24l-4.8 24h-17.44a8 8 0 0 0 -7.59 5.47l-6.18 18.53h-34.23a8 8 0 0 0 0 16h272a8 8 0 0 0 0-16h-34.23l-6.18-18.53a8 8 0 0 0 -7.59-5.47h-17.44l-4.8-24h154.24a28.031 28.031 0 0 0 28-28v-312a28.031 28.031 0 0 0 -28-28zm-137.77 408 2.67 8h-169.8l2.67-8zm-136.47-16 4.8-24h98.88l4.8 24zm286.24-52a12.01 12.01 0 0 1 -12 12h-440a12.01 12.01 0 0 1 -12-12v-12h464zm0-28h-464v-284a12.01 12.01 0 0 1 12-12h440a12.01 12.01 0 0 1 12 12z"/><path d="m384 184a72.724 72.724 0 0 0 -12.26 1.04 96.16 96.16 0 0 0 -122.04-41.12 88 88 0 1 0 -128.57 116.87 56.015 56.015 0 0 0 54.87 67.21h208a72 72 0 0 0 0-144zm-256.93 60.8a72 72 0 1 1 108.5-93.25 97.1 97.1 0 0 0 -14.88 12.01 95.277 95.277 0 0 0 -27.76 55.05 56.017 56.017 0 0 0 -65.86 26.19zm256.93 67.2h-208a40 40 0 1 1 20.01-74.65 8 8 0 0 0 12.01-6.78 80.138 80.138 0 0 1 42.29-69.16.219.219 0 0 1 .05-.03.746.746 0 0 0 .12-.07 80.089 80.089 0 0 1 109.76 36.29 8 8 0 0 0 9.28 4.29 56.006 56.006 0 1 1 14.48 110.11z"/><path d="m176 96a8 8 0 0 0 8-8v-8a8 8 0 0 0 -16 0v8a8 8 0 0 0 8 8z"/><path d="m64 200h8a8 8 0 0 0 0-16h-8a8 8 0 0 0 0 16z"/><path d="m96.8 124.117a8 8 0 1 0 11.314-11.312l-5.657-5.658a8 8 0 1 0 -11.31 11.313z"/><path d="m249.539 126.461a7.973 7.973 0 0 0 5.657-2.344l5.657-5.657a8 8 0 1 0 -11.314-11.313l-5.657 5.658a8 8 0 0 0 5.657 13.656z"/><path d="m96.8 259.883-5.657 5.657a8 8 0 0 0 11.314 11.313l5.657-5.658a8 8 0 1 0 -11.314-11.312z"/></g></g></svg>